<?xml version="1.0" encoding="iso-8859-1"?>
<!-- Generator: Adobe Illustrator 19.0.0, SVG Export Plug-In . SVG Version: 6.00 Build 0)  -->
<svg version="1.1" id="Layer_1" xmlns="http://www.w3.org/2000/svg" xmlns:xlink="http://www.w3.org/1999/xlink" x="0px" y="0px"
	 viewBox="0 0 512 512" style="enable-background:new 0 0 512 512;" xml:space="preserve">
<g>
	<g>
		<path d="M501.333,277.333H448v-42.667h32c5.888,0,10.667-4.779,10.667-10.667v-42.667c0-5.888-4.779-10.667-10.667-10.667h-32
			v-21.333h32c5.888,0,10.667-4.779,10.667-10.667V96c0-5.888-4.779-10.667-10.667-10.667h-32V74.667c0-17.643-14.357-32-32-32
			c-17.643,0-32,14.357-32,32v10.667H128V74.667c0-17.643-14.357-32-32-32c-17.643,0-32,14.357-32,32v10.667H32
			c-5.888,0-10.667,4.779-10.667,10.667v42.667c0,5.888,4.779,10.667,10.667,10.667h32v21.333H32
			c-5.888,0-10.667,4.779-10.667,10.667V224c0,5.888,4.779,10.667,10.667,10.667h32v42.667H10.667C4.779,277.333,0,282.112,0,288
			v42.667c0,5.888,4.779,10.667,10.667,10.667h10.667v117.333c0,5.888,4.779,10.667,10.667,10.667h42.667
			c5.888,0,10.667-4.779,10.667-10.667V341.333h341.333v117.333c0,5.888,4.779,10.667,10.667,10.667H480
			c5.888,0,10.667-4.779,10.667-10.667V341.333h10.667c5.888,0,10.667-4.779,10.667-10.667V288
			C512,282.112,507.221,277.333,501.333,277.333z M384,277.333H128v-42.667h256V277.333z M384,170.667H128v-21.333h256V170.667z"/>
	</g>
</g>
<g>
</g>
<g>
</g>
<g>
</g>
<g>
</g>
<g>
</g>
<g>
</g>
<g>
</g>
<g>
</g>
<g>
</g>
<g>
</g>
<g>
</g>
<g>
</g>
<g>
</g>
<g>
</g>
<g>
</g>
</svg>
