<svg height="512pt" viewBox="0 0 512 512.001" width="512pt" xmlns="http://www.w3.org/2000/svg"><path d="m255.660156 430.035156c-18.992187 0-39.300781-3.15625-59.832031-8.933594-3.746094 29.03125-5.863281 59.867188-6.105469 90.703126l131.765625.085937c-.523437-30.753906-2.839843-61.5625-6.761719-90.644531-20.507812 5.796875-40.425781 8.789062-59.066406 8.789062zm0 0"/><path d="m255.660156 267.019531c-10.652344 0-27.835937 21.132813-42.214844 68.34375-5.113281 16.796875-9.496093 35.625-13.054687 55.761719 19.140625 5.730469 37.980469 8.90625 55.273437 8.90625 17.765626 0 36.179688-3.140625 54.386719-8.5625-3.402343-18.824219-7.492187-36.558594-12.207031-52.625-6.980469-23.796875-15.152344-43.125-23.628906-55.902344-6.710938-10.117187-13.472656-15.921875-18.554688-15.921875zm0 0"/><path d="m226.960938 248.554688c-55.578126 6.1875-107.316407 30.296874-148.1875 69.460937 25.132812 26.027344 58.550781 48.085937 93.019531 62.746094 3.601562-19.4375 7.941406-37.6875 12.953125-54.140625 11.527344-37.851563 25.839844-64.160156 42.214844-78.066406zm0 0"/><path d="m283.96875 248.511719c5.3125 4.589843 10.402344 10.542969 15.25 17.847656 10.257812 15.46875 19.480469 37.011719 27.410156 64.035156 4.578125 15.59375 8.59375 32.648438 11.996094 50.6875 36.664062-15.699219 70.503906-39.210937 93.980469-63.011719-40.980469-39.292968-92.882813-63.4375-148.636719-69.558593zm0 0"/><path d="m453.039062 340.058594c-23.464843 23.585937-53.984374 45.164062-86.804687 61.25-7.550781 3.699218-15.09375 7.050781-22.605469 10.054687 4.597656 32.164063 7.332032 66.433594 7.886719 100.542969l144.804687.09375h.007813c4.039063 0 7.90625-1.628906 10.730469-4.515625 2.824218-2.890625 4.363281-6.796875 4.269531-10.839844-1.367187-57.878906-21.882813-112.539062-58.289063-156.585937zm0 0"/><path d="m58.304688 340.035156c-36.34375 43.960938-56.863282 98.507813-58.30078175 156.28125-.10156245 4.039063 1.43359375 7.949219 4.25390575 10.84375 2.824219 2.894532 6.691407 4.527344 10.734376 4.53125l144.734374.09375c0-.042968-.007812-.085937-.007812-.128906.261719-34.125 2.757812-68.34375 7.167969-100.386719-40.019531-15.890625-78.925781-40.890625-108.582031-71.234375zm0 0"/><path d="m255.664062 105.402344c8.273438 0 15.003907-6.730469 15.003907-15.003906 0-8.269532-6.730469-15-15.003907-15-8.269531 0-15 6.730468-15 15 0 8.273437 6.730469 15.003906 15 15.003906zm0 0"/><path d="m226.328125 183.34375 18.042969 36.082031c2.136718 4.28125 6.511718 6.980469 11.292968 6.980469 4.785157 0 9.15625-2.699219 11.296876-6.980469l18.042968-36.082031c38.359375-12.558594 64.667969-48.488281 64.667969-89.335938 0-51.835937-42.171875-94.007812-94.007813-94.007812-51.835937 0-94.007812 42.171875-94.007812 94.007812 0 40.847657 26.3125 76.773438 64.671875 89.335938zm29.335937-137.949219c24.816407 0 45.003907 20.191407 45.003907 45.003907 0 24.816406-20.1875 45.003906-45.003907 45.003906-24.8125 0-45.003906-20.1875-45.003906-45.003906 0-24.8125 20.191406-45.003907 45.003906-45.003907zm0 0"/></svg>