<?xml version="1.0" encoding="iso-8859-1"?>
<!-- Generator: Adobe Illustrator 19.0.0, SVG Export Plug-In . SVG Version: 6.00 Build 0)  -->
<svg version="1.1" id="Capa_1" xmlns="http://www.w3.org/2000/svg" xmlns:xlink="http://www.w3.org/1999/xlink" x="0px" y="0px"
	 viewBox="0 0 512 512" style="enable-background:new 0 0 512 512;" xml:space="preserve">
<g>
	<g>
		<path d="M497,46H15C6.709,46,0,52.709,0,61v120c0,8.291,6.709,15,15,15h482c8.291,0,15-6.709,15-15V61
			C512,52.709,505.291,46,497,46z M75,136c-8.284,0-15-6.716-15-15s6.716-15,15-15s15,6.716,15,15S83.284,136,75,136z M437,136
			c-8.284,0-15-6.716-15-15s6.716-15,15-15s15,6.716,15,15S445.284,136,437,136z"/>
	</g>
</g>
<g>
	<g>
		<path d="M497,286h-45v-60h-60v60H120v-60H60v60H15c-8.284,0-15,6.716-15,15v30c0,8.284,6.716,15,15,15h482c8.284,0,15-6.716,15-15
			v-30C512,292.716,505.284,286,497,286z"/>
	</g>
</g>
<g>
	<g>
		<path d="M30,376v75c0,8.284,6.716,15,15,15h30c8.284,0,15-6.716,15-15v-75H30z"/>
	</g>
</g>
<g>
	<g>
		<path d="M422,376v75c0,8.284,6.716,15,15,15h30c8.284,0,15-6.716,15-15v-75H422z"/>
	</g>
</g>
<g>
</g>
<g>
</g>
<g>
</g>
<g>
</g>
<g>
</g>
<g>
</g>
<g>
</g>
<g>
</g>
<g>
</g>
<g>
</g>
<g>
</g>
<g>
</g>
<g>
</g>
<g>
</g>
<g>
</g>
</svg>
